<svg width="40" height="40" viewBox="0 0 40 40" fill="none" xmlns="http://www.w3.org/2000/svg">
<g filter="url(#filter0_d_181_18)">
<circle cx="20" cy="16" r="16" fill="#393C47"/>
</g>
<g filter="url(#filter1_d_181_18)">
<path d="M13.2929 15.2929C12.9024 15.6834 12.9024 16.3166 13.2929 16.7071L19.6569 23.0711C20.0474 23.4616 20.6805 23.4616 21.0711 23.0711C21.4616 22.6805 21.4616 22.0474 21.0711 21.6569L15.4142 16L21.0711 10.3431C21.4616 9.95262 21.4616 9.31946 21.0711 8.92893C20.6805 8.53841 20.0474 8.53841 19.6569 8.92893L13.2929 15.2929ZM25 15L14 15V17H25V15Z" fill="white"/>
</g>
<defs>
<filter id="filter0_d_181_18" x="0" y="0" width="40" height="40" filterUnits="userSpaceOnUse" color-interpolation-filters="sRGB">
<feFlood flood-opacity="0" result="BackgroundImageFix"/>
<feColorMatrix in="SourceAlpha" type="matrix" values="0 0 0 0 0 0 0 0 0 0 0 0 0 0 0 0 0 0 127 0" result="hardAlpha"/>
<feOffset dy="4"/>
<feGaussianBlur stdDeviation="2"/>
<feComposite in2="hardAlpha" operator="out"/>
<feColorMatrix type="matrix" values="0 0 0 0 0 0 0 0 0 0 0 0 0 0 0 0 0 0 0.25 0"/>
<feBlend mode="normal" in2="BackgroundImageFix" result="effect1_dropShadow_181_18"/>
<feBlend mode="normal" in="SourceGraphic" in2="effect1_dropShadow_181_18" result="shape"/>
</filter>
<filter id="filter1_d_181_18" x="9" y="8.63604" width="20" height="22.7279" filterUnits="userSpaceOnUse" color-interpolation-filters="sRGB">
<feFlood flood-opacity="0" result="BackgroundImageFix"/>
<feColorMatrix in="SourceAlpha" type="matrix" values="0 0 0 0 0 0 0 0 0 0 0 0 0 0 0 0 0 0 127 0" result="hardAlpha"/>
<feOffset dy="4"/>
<feGaussianBlur stdDeviation="2"/>
<feComposite in2="hardAlpha" operator="out"/>
<feColorMatrix type="matrix" values="0 0 0 0 0 0 0 0 0 0 0 0 0 0 0 0 0 0 0.25 0"/>
<feBlend mode="normal" in2="BackgroundImageFix" result="effect1_dropShadow_181_18"/>
<feBlend mode="normal" in="SourceGraphic" in2="effect1_dropShadow_181_18" result="shape"/>
</filter>
</defs>
</svg>
