<svg width="99" height="40" viewBox="0 0 99 40" fill="none" xmlns="http://www.w3.org/2000/svg">
<g filter="url(#filter0_d_175_10)">
<rect x="4" width="91" height="32" rx="4" fill="#4CC2FF"/>
</g>
<g filter="url(#filter1_d_175_10)">
<path d="M33.6043 15.1468C34.2422 15.5367 34.2422 16.4632 33.6043 16.8532L23.7716 22.8641C23.1052 23.2714 22.25 22.7919 22.25 22.0109V9.98913C22.25 9.20814 23.1052 8.72858 23.7716 9.13593L33.6043 15.1468Z" fill="black"/>
</g>
<g filter="url(#filter2_d_175_10)">
<path d="M41.9033 17.7588H43.8994C43.945 18.1598 44.1546 18.4788 44.5283 18.7158C44.902 18.9528 45.3805 19.0713 45.9639 19.0713C46.5016 19.0713 46.9414 18.9551 47.2832 18.7227C47.625 18.4857 47.7959 18.1803 47.7959 17.8066C47.7959 17.4922 47.6637 17.237 47.3994 17.041C47.1351 16.8451 46.6999 16.6833 46.0938 16.5557L44.8086 16.2822C43.0221 15.9085 42.1289 14.9697 42.1289 13.4658C42.1289 12.5361 42.473 11.791 43.1611 11.2305C43.8493 10.6654 44.763 10.3828 45.9023 10.3828C46.987 10.3828 47.8779 10.6585 48.5752 11.21C49.277 11.7614 49.6439 12.4769 49.6758 13.3564H47.7344C47.6842 12.9645 47.4928 12.6501 47.1602 12.4131C46.8275 12.1761 46.4128 12.0576 45.916 12.0576C45.3965 12.0576 44.9795 12.1693 44.665 12.3926C44.3551 12.6159 44.2002 12.9144 44.2002 13.2881C44.2002 13.5934 44.3255 13.8395 44.5762 14.0264C44.8314 14.2132 45.2484 14.3682 45.8271 14.4912L47.0166 14.7441C48.0055 14.9538 48.7256 15.2819 49.1768 15.7285C49.6279 16.1751 49.8535 16.7812 49.8535 17.5469C49.8535 18.5404 49.4958 19.3242 48.7803 19.8984C48.0693 20.4681 47.0941 20.7529 45.8545 20.7529C44.6787 20.7529 43.7354 20.484 43.0244 19.9463C42.3135 19.4085 41.9398 18.6794 41.9033 17.7588ZM52.1777 11.1689H54.167V13.0352H55.7324V14.6006H54.167V17.9912C54.167 18.3193 54.2445 18.5609 54.3994 18.7158C54.5589 18.8708 54.8073 18.9482 55.1445 18.9482C55.3678 18.9482 55.5638 18.9391 55.7324 18.9209V20.4385C55.4271 20.4977 55.0944 20.5273 54.7344 20.5273C53.8184 20.5273 53.1621 20.3678 52.7656 20.0488C52.3737 19.7298 52.1777 19.2012 52.1777 18.4629V14.6006H51.002V13.0352H52.1777V11.1689ZM60.1143 19.1191C60.5745 19.1191 60.9596 18.9893 61.2695 18.7295C61.5794 18.4697 61.7344 18.1484 61.7344 17.7656V17.2119L60.21 17.3076C59.3623 17.3669 58.9385 17.6699 58.9385 18.2168C58.9385 18.4948 59.0456 18.7158 59.2598 18.8799C59.4785 19.0394 59.7633 19.1191 60.1143 19.1191ZM59.458 20.6162C58.7288 20.6162 58.1341 20.4089 57.6738 19.9941C57.2181 19.5794 56.9902 19.0303 56.9902 18.3467C56.9902 17.6676 57.2409 17.1344 57.7422 16.7471C58.248 16.3551 58.9704 16.1318 59.9092 16.0771L61.7344 15.9678V15.3525C61.7344 15.0381 61.625 14.7965 61.4062 14.6279C61.1875 14.4548 60.873 14.3682 60.4629 14.3682C59.7246 14.3682 59.2712 14.6006 59.1025 15.0654H57.2705C57.3343 14.3682 57.6624 13.8167 58.2549 13.4111C58.8519 13.001 59.6243 12.7959 60.5723 12.7959C61.5658 12.7959 62.3337 13.0192 62.876 13.4658C63.4229 13.9124 63.6963 14.5413 63.6963 15.3525V20.5H61.7686V19.5156H61.6455C61.4495 19.862 61.1579 20.1331 60.7705 20.3291C60.3831 20.5205 59.9456 20.6162 59.458 20.6162ZM65.6514 20.5V12.96H67.5791V14.1631H67.7021C67.8024 13.7803 68.0303 13.4635 68.3857 13.2129C68.7458 12.9622 69.1628 12.8369 69.6367 12.8369C69.9785 12.8369 70.2383 12.8688 70.416 12.9326V14.7441C70.2064 14.6621 69.8919 14.6211 69.4727 14.6211C68.9212 14.6211 68.4769 14.7738 68.1396 15.0791C67.807 15.3844 67.6406 15.7992 67.6406 16.3232V20.5H65.6514ZM72.6309 11.1689H74.6201V13.0352H76.1855V14.6006H74.6201V17.9912C74.6201 18.3193 74.6976 18.5609 74.8525 18.7158C75.012 18.8708 75.2604 18.9482 75.5977 18.9482C75.821 18.9482 76.0169 18.9391 76.1855 18.9209V20.4385C75.8802 20.4977 75.5475 20.5273 75.1875 20.5273C74.2715 20.5273 73.6152 20.3678 73.2188 20.0488C72.8268 19.7298 72.6309 19.2012 72.6309 18.4629V14.6006H71.4551V13.0352H72.6309V11.1689Z" fill="black"/>
</g>
<defs>
<filter id="filter0_d_175_10" x="0" y="0" width="99" height="40" filterUnits="userSpaceOnUse" color-interpolation-filters="sRGB">
<feFlood flood-opacity="0" result="BackgroundImageFix"/>
<feColorMatrix in="SourceAlpha" type="matrix" values="0 0 0 0 0 0 0 0 0 0 0 0 0 0 0 0 0 0 127 0" result="hardAlpha"/>
<feOffset dy="4"/>
<feGaussianBlur stdDeviation="2"/>
<feComposite in2="hardAlpha" operator="out"/>
<feColorMatrix type="matrix" values="0 0 0 0 0 0 0 0 0 0 0 0 0 0 0 0 0 0 0.25 0"/>
<feBlend mode="normal" in2="BackgroundImageFix" result="effect1_dropShadow_175_10"/>
<feBlend mode="normal" in="SourceGraphic" in2="effect1_dropShadow_175_10" result="shape"/>
</filter>
<filter id="filter1_d_175_10" x="18.25" y="8.98756" width="19.8327" height="22.0249" filterUnits="userSpaceOnUse" color-interpolation-filters="sRGB">
<feFlood flood-opacity="0" result="BackgroundImageFix"/>
<feColorMatrix in="SourceAlpha" type="matrix" values="0 0 0 0 0 0 0 0 0 0 0 0 0 0 0 0 0 0 127 0" result="hardAlpha"/>
<feOffset dy="4"/>
<feGaussianBlur stdDeviation="2"/>
<feComposite in2="hardAlpha" operator="out"/>
<feColorMatrix type="matrix" values="0 0 0 0 0 0 0 0 0 0 0 0 0 0 0 0 0 0 0.25 0"/>
<feBlend mode="normal" in2="BackgroundImageFix" result="effect1_dropShadow_175_10"/>
<feBlend mode="normal" in="SourceGraphic" in2="effect1_dropShadow_175_10" result="shape"/>
</filter>
<filter id="filter2_d_175_10" x="37.9033" y="10.3828" width="42.2822" height="18.3701" filterUnits="userSpaceOnUse" color-interpolation-filters="sRGB">
<feFlood flood-opacity="0" result="BackgroundImageFix"/>
<feColorMatrix in="SourceAlpha" type="matrix" values="0 0 0 0 0 0 0 0 0 0 0 0 0 0 0 0 0 0 127 0" result="hardAlpha"/>
<feOffset dy="4"/>
<feGaussianBlur stdDeviation="2"/>
<feComposite in2="hardAlpha" operator="out"/>
<feColorMatrix type="matrix" values="0 0 0 0 0 0 0 0 0 0 0 0 0 0 0 0 0 0 0.25 0"/>
<feBlend mode="normal" in2="BackgroundImageFix" result="effect1_dropShadow_175_10"/>
<feBlend mode="normal" in="SourceGraphic" in2="effect1_dropShadow_175_10" result="shape"/>
</filter>
</defs>
</svg>
